<?xml version="1.0" standalone="no"?>
<!DOCTYPE svg PUBLIC "-//W3C//DTD SVG 20010904//EN"
 "http://www.w3.org/TR/2001/REC-SVG-20010904/DTD/svg10.dtd">
<svg version="1.0" xmlns="http://www.w3.org/2000/svg"
 width="1199.000000pt" height="1599.000000pt" viewBox="0 0 1199.000000 1599.000000"
 preserveAspectRatio="xMidYMid meet">
<metadata>
Created by potrace 1.16, written by Peter Selinger 2001-2019
</metadata>
<g transform="translate(0.000000,1599.000000) scale(0.100000,-0.100000)"
fill="#000000" stroke="none">
<path d="M5828 14165 c-3 -3 -54 -7 -114 -10 -60 -3 -121 -7 -136 -11 -16 -3
-28 -1 -28 4 0 5 -16 6 -39 2 -21 -4 -46 -3 -55 2 -11 6 -36 5 -69 -2 -56 -12
-103 -51 -109 -92 -2 -16 -12 -24 -38 -30 -41 -9 -129 0 -148 15 -9 7 -20 6
-38 -2 -20 -9 -30 -9 -40 0 -21 18 -58 3 -102 -41 -22 -22 -49 -40 -61 -40
-11 0 -26 -9 -33 -20 -10 -15 -24 -20 -55 -20 -23 0 -57 -6 -75 -14 -18 -8
-64 -19 -103 -26 -38 -6 -86 -18 -106 -25 -26 -10 -39 -11 -47 -3 -8 8 -15 8
-24 1 -7 -6 -29 -16 -50 -22 -20 -7 -39 -18 -42 -26 -3 -9 -18 -15 -34 -15
-16 0 -35 -6 -41 -14 -7 -8 -25 -18 -41 -21 -16 -4 -46 -27 -71 -56 -29 -34
-49 -49 -61 -46 -9 3 -22 -1 -29 -9 -6 -8 -18 -14 -27 -14 -23 0 -62 -40 -55
-56 4 -11 -5 -14 -35 -14 -22 0 -45 -6 -51 -14 -7 -8 -24 -17 -39 -21 l-27 -7
24 -19 c32 -26 20 -35 -20 -15 -31 15 -49 14 -49 -4 0 -23 -91 -99 -125 -106
-25 -4 -39 -14 -45 -29 -5 -13 -13 -26 -19 -29 -6 -4 -5 -22 4 -51 7 -25 12
-46 12 -46 -1 -1 -14 -2 -30 -3 -15 -1 -36 -9 -47 -19 -16 -13 -20 -14 -20 -2
0 25 -20 27 -31 2 -6 -13 -25 -30 -42 -38 -33 -15 -85 -89 -86 -124 -2 -40
-15 -46 -99 -48 -81 -2 -82 -2 -97 -34 -16 -32 -20 -93 -7 -93 4 0 12 -11 19
-25 9 -20 9 -25 0 -24 -31 4 -38 -2 -33 -23 3 -13 3 -18 0 -12 -6 13 -54 -4
-54 -19 0 -14 -44 -46 -62 -47 -22 0 -23 -13 -3 -30 20 -17 10 -30 -25 -30
-54 0 -39 -49 17 -51 10 0 -1 -9 -24 -19 -30 -13 -41 -24 -37 -34 3 -8 2 -21
-2 -28 -5 -7 -10 -24 -12 -36 -1 -13 -15 -34 -30 -47 -22 -19 -25 -26 -14 -36
6 -7 12 -21 12 -30 0 -10 6 -19 13 -22 9 -3 7 -12 -6 -36 -16 -27 -16 -31 -2
-31 13 0 13 -3 3 -20 -11 -17 -10 -22 0 -29 8 -5 15 -27 16 -50 1 -23 6 -45
12 -49 5 -4 10 -56 12 -117 2 -63 12 -146 23 -194 16 -70 18 -107 14 -229 -3
-81 -10 -151 -15 -156 -6 -6 -10 -17 -10 -26 0 -10 -6 -30 -14 -46 -10 -22
-12 -51 -7 -119 4 -49 4 -95 -1 -102 -6 -7 -3 -15 9 -22 10 -6 12 -11 5 -11
-9 0 -10 -5 -2 -20 5 -11 14 -29 20 -39 6 -14 6 -21 -3 -24 -9 -3 -9 -9 0 -24
6 -11 13 -58 14 -104 2 -46 7 -87 12 -90 5 -4 4 -16 -3 -30 -9 -15 -9 -24 -2
-27 5 -1 8 -12 5 -22 -3 -11 0 -20 6 -20 13 0 15 -66 2 -75 -6 -3 -4 -17 5
-33 24 -47 19 -53 -35 -47 -29 3 -52 2 -56 -5 -4 -6 7 -10 29 -10 22 0 36 -5
36 -12 0 -10 2 -10 9 0 14 23 33 -13 30 -57 -2 -22 0 -43 4 -47 11 -12 8 -66
-3 -59 -6 4 -8 15 -5 25 3 10 1 21 -5 25 -6 4 -10 -7 -10 -29 0 -20 5 -36 10
-36 6 0 10 -10 9 -22 -4 -48 1 -89 11 -83 6 3 10 1 10 -4 0 -22 -40 -10 -53
15 -9 17 -17 23 -21 15 -4 -6 0 -18 8 -27 9 -8 16 -32 17 -52 l1 -37 9 33 c10
32 39 45 39 16 0 -8 -4 -12 -10 -9 -14 9 -13 -104 2 -145 9 -28 9 -35 -6 -46
-16 -12 -16 -13 1 -17 16 -4 16 -5 1 -6 -22 -1 -24 -19 -3 -27 16 -7 21 -24 6
-24 -5 0 -19 9 -32 20 -20 16 -21 21 -10 29 22 15 -7 36 -49 36 -31 0 -35 3
-38 28 -3 26 11 37 23 17 3 -5 15 -10 26 -10 10 0 19 5 19 10 0 6 9 10 20 10
17 0 20 7 20 40 0 29 -4 40 -15 40 -8 0 -15 9 -15 19 0 13 -9 21 -30 26 -16 4
-30 13 -30 21 0 9 -10 14 -27 14 -25 -1 -26 -2 -10 -14 9 -7 17 -23 17 -34 0
-13 8 -22 23 -25 l22 -4 -22 -2 c-13 0 -23 -7 -23 -15 0 -8 -7 -16 -15 -20 -8
-3 -15 -11 -15 -18 0 -7 -12 -24 -25 -37 -24 -22 -25 -22 -25 -3 0 11 -7 26
-16 33 -9 7 -20 23 -25 36 -5 13 -16 23 -25 23 -11 0 -14 -5 -9 -17 15 -35 17
-63 6 -63 -6 0 -11 8 -11 18 -1 16 -2 15 -11 -2 -8 -13 -8 -25 0 -43 6 -13 11
-40 11 -60 0 -27 3 -34 15 -29 12 4 13 2 2 -14 -8 -14 -18 -18 -32 -14 -34 10
-39 22 -21 48 21 32 20 36 -4 36 -11 0 -25 -9 -32 -20 -9 -14 -24 -20 -48 -20
-37 0 -80 -23 -80 -42 0 -32 110 -54 137 -27 14 14 27 -22 18 -52 -5 -16 -10
-18 -21 -8 -10 8 -14 8 -14 0 0 -15 -77 -14 -82 1 -3 9 -6 9 -12 0 -4 -7 -2
-12 3 -12 6 0 11 -18 11 -39 0 -22 5 -41 11 -43 6 -2 7 -12 1 -28 -7 -20 -16
-25 -42 -25 -18 0 -35 -6 -37 -12 -4 -10 19 -13 91 -13 57 0 96 -4 96 -10 0
-5 -9 -10 -20 -10 -13 0 -20 -7 -20 -20 0 -14 7 -20 21 -20 11 0 17 -4 14 -10
-3 -5 3 -10 15 -10 12 0 18 -4 15 -10 -3 -5 -15 -10 -26 -10 -10 0 -19 5 -19
10 0 6 -20 10 -45 10 l-45 0 0 -40 c0 -30 4 -40 16 -40 14 0 14 -2 0 -15 -8
-8 -17 -15 -20 -15 -3 0 -6 29 -6 65 l0 65 -37 0 c-32 0 -40 5 -51 28 -8 17
-9 28 -2 30 19 7 10 18 -26 31 -34 12 -35 14 -18 32 16 18 16 19 -4 19 -17 0
-22 -6 -22 -25 0 -22 -4 -25 -40 -25 -36 0 -40 -2 -40 -25 0 -14 -4 -25 -10
-25 -5 0 -10 -6 -10 -14 0 -9 11 -13 33 -12 26 1 32 -3 32 -19 1 -11 4 -25 8
-32 5 -7 0 -16 -12 -22 -31 -17 -41 -13 -41 14 0 19 -5 25 -22 26 -36 2 -52
-2 -60 -14 -5 -9 -10 -9 -20 1 -6 6 -22 12 -35 12 -13 0 -23 4 -23 9 0 5 -20
11 -45 13 -50 4 -64 -8 -80 -67 l-8 -30 -13 40 -12 40 -1 -42 c-1 -41 0 -43
29 -43 17 0 30 -4 30 -10 0 -5 5 -10 11 -10 11 0 9 21 -7 78 -4 13 -2 22 5 22
6 0 11 -11 11 -25 0 -32 13 -32 38 0 22 27 42 33 42 11 0 -7 9 -16 20 -19 26
-7 26 -43 0 -50 -14 -3 -20 -14 -20 -32 0 -22 3 -26 17 -20 34 15 71 17 78 5
11 -18 -15 -60 -37 -60 -10 0 -21 -7 -24 -15 -10 -25 -50 -17 -78 16 -22 26
-28 28 -40 17 -8 -8 -16 -23 -18 -34 -5 -26 -32 -24 -36 4 -4 25 -6 26 -33 11
-16 -8 -26 -7 -45 6 -22 14 -24 14 -24 -1 0 -20 -24 -13 -28 9 -2 10 3 17 12
17 9 0 16 5 16 11 0 6 11 20 25 31 34 27 31 38 -10 38 -19 0 -44 8 -54 18 -52
47 -53 47 -46 8 7 -32 5 -37 -20 -46 -30 -12 -29 -29 3 -41 20 -7 22 -5 22 21
0 34 0 34 35 18 33 -15 32 -21 -10 -41 -40 -19 -129 -22 -171 -7 -15 6 -30 8
-33 4 -3 -4 0 -9 7 -11 6 -3 12 -9 12 -15 0 -7 -19 -8 -58 -4 -31 4 -78 10
-104 13 -51 6 -60 -3 -30 -30 23 -21 32 -21 32 -2 0 19 3 19 50 -5 22 -11 55
-20 75 -20 19 0 35 -4 35 -10 0 -6 -27 -10 -61 -10 -36 0 -58 -4 -54 -10 3 -5
12 -7 20 -4 8 4 20 -6 29 -25 20 -37 20 -41 1 -41 -21 0 -19 -4 21 -44 40 -40
44 -42 44 -21 0 11 11 15 39 15 43 0 68 19 49 38 -9 9 -9 12 3 12 13 0 30 23
45 63 3 9 11 17 17 17 6 0 19 8 29 17 14 13 21 14 30 5 9 -9 7 -19 -10 -42
l-23 -30 31 0 c27 0 30 -3 30 -30 0 -28 -2 -30 -40 -30 -40 0 -44 4 -41 45 2
17 -1 16 -23 -9 -29 -32 -31 -42 -15 -51 12 -8 -17 -45 -35 -45 -6 0 -4 5 4
10 8 5 10 10 4 10 -7 0 -22 -8 -34 -18 l-22 -18 28 -18 c27 -18 28 -18 45 3
27 33 49 27 49 -14 0 -32 -2 -35 -29 -35 -80 0 -17 -41 70 -45 64 -4 92 -25
33 -25 -38 0 -42 -3 -60 -40 -22 -47 -50 -50 -74 -8 -12 22 -12 30 -2 40 10
10 17 10 32 0 23 -14 30 -15 30 -4 0 8 -49 32 -67 32 -7 0 -13 8 -13 18 0 14
-8 17 -40 17 l-40 0 0 -40 0 -40 20 25 20 25 19 -25 c11 -13 17 -28 15 -32 -7
-12 -62 -10 -69 2 -3 6 -24 10 -46 10 -37 0 -39 -2 -39 -30 0 -25 -4 -30 -24
-30 -13 0 -33 -3 -43 -6 -10 -4 6 16 34 45 44 42 53 57 53 86 0 19 5 35 10 35
6 0 10 -18 10 -40 0 -22 5 -40 10 -40 6 0 10 18 10 40 0 37 2 40 28 41 l27 1
-31 13 c-18 8 -41 26 -52 40 -11 14 -27 25 -35 25 -8 0 -20 14 -26 31 -9 28
-13 30 -27 18 -20 -16 -33 -50 -27 -66 3 -8 22 -13 44 -13 35 0 39 -3 39 -25
0 -22 -4 -25 -35 -25 -34 0 -35 -1 -36 -42 -2 -31 -3 -35 -6 -15 -4 23 -7 26
-19 16 -8 -6 -14 -18 -14 -25 0 -8 -10 -14 -25 -14 -20 0 -25 5 -25 25 0 14
-4 25 -8 25 -5 0 -19 -11 -32 -25 -13 -14 -32 -25 -42 -25 -14 0 -18 8 -18 40
0 33 -3 40 -20 40 -17 0 -20 -7 -20 -41 0 -33 -3 -40 -16 -35 -10 4 -13 2 -8
-6 5 -8 2 -9 -10 -5 -10 4 -22 7 -27 7 -20 0 -7 30 16 36 32 8 32 17 0 34 -22
12 -28 12 -42 -3 -13 -12 -14 -19 -5 -30 7 -8 10 -16 8 -18 -2 -2 -43 -3 -90
-1 -86 3 -86 4 -86 30 -1 15 -7 38 -15 52 -19 33 -19 60 0 60 11 0 15 -11 15
-40 0 -25 5 -40 13 -40 7 0 18 -9 25 -20 13 -21 42 -28 42 -10 0 6 18 10 40
10 22 0 40 5 40 10 0 6 -4 10 -10 10 -5 0 -10 8 -10 19 0 10 -9 21 -20 24 -11
3 -20 11 -20 19 0 21 -50 40 -68 26 -11 -10 -17 -9 -27 5 -15 21 -38 22 -55 2
-15 -18 -41 -19 -59 -2 -11 10 -14 10 -18 0 -3 -7 -11 -13 -19 -13 -10 0 -14
-12 -14 -39 0 -22 -5 -43 -11 -47 -6 -3 -8 -16 -5 -28 8 -32 -8 -53 -28 -37
-15 13 -36 8 -36 -9 0 -4 16 -24 37 -45 33 -33 35 -38 21 -52 -24 -23 -58 -1
-58 37 0 28 -2 30 -40 30 -29 0 -40 4 -40 15 0 9 -9 15 -25 15 -16 0 -25 6
-25 15 0 8 -7 15 -15 15 -8 0 -15 -7 -15 -15 0 -9 -9 -15 -25 -15 -30 0 -32
-11 -6 -34 19 -17 21 -17 42 3 13 12 27 21 31 21 15 0 21 -31 9 -43 -16 -16
-14 -27 5 -27 16 0 92 -66 84 -73 -6 -6 -64 -10 -107 -8 -28 1 -33 5 -33 26 0
22 -4 25 -32 25 -18 0 -54 -7 -80 -15 -27 -8 -48 -11 -48 -7 0 4 -5 -1 -11
-10 -17 -29 -35 -21 -48 22 -6 22 -15 40 -19 40 -4 0 -7 -25 -8 -55 0 -50 2
-55 22 -55 20 0 34 -17 34 -41 0 -13 -34 -11 -48 3 -8 8 -12 9 -12 1 0 -6 5
-13 12 -15 6 -2 9 -10 7 -17 -4 -11 -8 -10 -21 3 -9 9 -25 16 -36 16 -24 0
-34 23 -26 56 4 15 13 24 25 24 10 0 19 4 19 10 0 17 -54 37 -90 33 -27 -4
-40 0 -55 17 l-20 22 35 -6 35 -7 -34 16 c-40 18 -57 9 -66 -38 -4 -18 -9 -39
-11 -48 -3 -11 3 -19 18 -23 23 -6 23 -7 4 -21 -11 -8 -28 -15 -39 -15 -16 0
-18 5 -12 27 3 15 11 31 17 34 7 4 6 18 -3 43 -11 30 -18 36 -41 36 -26 0 -28
3 -28 40 0 29 -4 40 -15 40 -12 0 -15 -15 -13 -82 1 -71 2 -77 8 -38 l7 45 1
-42 c1 -23 7 -45 12 -48 6 -3 10 -14 9 -23 0 -14 -2 -13 -9 3 -5 11 -9 16 -9
12 -1 -4 -10 -3 -21 3 -15 8 -20 21 -20 50 0 29 -4 40 -15 40 -12 0 -15 -15
-15 -71 0 -66 1 -71 20 -66 10 3 24 -1 31 -9 6 -8 22 -14 36 -14 15 0 22 -4
17 -11 -4 -7 -24 -9 -55 -5 l-49 7 0 -45 0 -45 43 -4 42 -4 -42 -1 c-38 -2
-43 -5 -43 -26 0 -22 3 -24 40 -20 26 3 40 1 40 -6 0 -7 -15 -10 -37 -8 -37 3
-38 2 -41 -34 -2 -26 1 -38 9 -38 10 0 10 -3 1 -12 -9 -9 -12 -973 -12 -4275
l0 -4263 5130 0 c2822 0 5130 2 5130 4 0 12 -35 85 -56 115 -13 20 -24 49 -24
66 0 52 -29 183 -49 223 -10 20 -26 66 -36 102 -9 36 -27 106 -41 155 -13 50
-27 110 -30 135 -4 25 -12 52 -18 60 -31 39 -37 86 -20 146 29 105 36 166 25
212 -6 23 -16 63 -23 90 -6 26 -29 80 -50 120 -21 41 -38 78 -38 83 0 5 -13
37 -30 71 -16 34 -30 68 -30 76 0 9 -6 23 -14 31 -14 15 -46 91 -102 239 -28
75 -43 206 -48 432 -3 91 -9 192 -15 225 -5 33 -15 155 -21 270 -11 203 -29
361 -51 448 -6 23 -14 74 -19 112 -4 39 -15 97 -24 130 -8 34 -16 105 -16 165
-2 154 -50 472 -117 770 -8 36 -18 85 -22 110 -5 25 -22 106 -40 181 -17 75
-31 143 -31 151 0 8 -16 66 -36 129 -47 149 -141 336 -213 424 -32 39 -69 88
-83 110 -26 40 -74 93 -139 151 -55 50 -182 144 -193 144 -6 0 -42 16 -81 35
-38 19 -78 35 -89 35 -38 0 -137 64 -184 118 -26 30 -51 61 -56 69 -4 8 -16
23 -25 32 -9 10 -46 52 -84 94 -86 97 -166 156 -297 222 -154 76 -229 100
-478 151 -78 16 -86 16 -165 -1 -45 -10 -125 -18 -178 -19 -82 -1 -100 2 -118
18 -12 11 -21 25 -21 32 0 15 -42 83 -52 84 -11 0 -24 -63 -59 -283 -5 -32
-16 -86 -24 -120 -8 -34 -18 -78 -20 -97 -7 -45 -19 -76 -71 -183 -42 -85 -75
-126 -101 -127 -7 0 -17 -9 -23 -20 -14 -27 -127 -84 -133 -67 -3 9 -10 9 -30
-2 -14 -8 -24 -18 -21 -23 9 -13 -3 -9 -20 8 -21 20 -50 10 -65 -22 -15 -33
-4 -46 15 -20 16 22 28 17 18 -8 -4 -11 -15 -16 -29 -14 -12 1 -29 -3 -37 -9
-8 -7 -32 -15 -54 -18 -29 -3 -49 -15 -77 -45 -22 -23 -33 -41 -25 -41 7 -1
18 -2 23 -4 6 -1 20 -3 33 -3 23 -2 23 -2 5 -29 -10 -16 -38 -68 -62 -118 -24
-49 -52 -107 -62 -128 -11 -22 -19 -47 -19 -56 0 -9 -5 -22 -12 -29 -14 -14
-19 -33 -24 -91 -1 -25 -18 -88 -37 -140 -68 -189 -89 -265 -94 -340 -2 -42
-5 -80 -7 -86 -2 -5 0 -37 5 -70 4 -33 10 -78 13 -100 2 -22 7 -52 11 -68 6
-23 4 -27 -13 -27 -12 0 -24 5 -27 10 -3 6 -12 10 -20 10 -8 0 -29 10 -48 23
-18 12 -59 31 -91 42 -32 11 -69 30 -83 43 -13 12 -28 20 -32 18 -10 -7 -258
118 -289 145 -12 10 -61 45 -110 76 -48 32 -95 68 -105 80 -25 31 -40 29 -33
-4 3 -18 -2 -11 -15 17 -12 25 -26 71 -33 102 -14 67 -36 100 -36 52 1 -78 67
-287 120 -380 36 -62 40 -120 10 -152 -29 -31 -32 -28 -14 18 16 40 14 106 -3
119 -14 10 -63 108 -63 125 0 9 -4 16 -10 16 -14 0 -13 -12 6 -66 9 -26 25
-55 36 -64 13 -10 22 -32 25 -61 4 -36 1 -49 -17 -69 -18 -21 -21 -22 -15 -5
21 62 18 95 -12 133 -33 40 -49 99 -58 207 -4 39 -11 85 -17 103 -5 18 -11 58
-12 89 -1 35 -6 58 -14 61 -16 5 -15 20 3 38 21 21 19 31 -10 50 -21 13 -25
24 -25 63 0 25 -10 89 -21 141 -11 52 -21 104 -22 115 -1 11 -8 24 -14 28 -7
4 -13 17 -13 27 0 10 -4 22 -10 25 -6 4 -5 13 2 25 9 14 16 16 25 9 10 -9 11
0 6 40 l-6 51 32 0 c19 0 31 5 31 13 0 39 107 67 127 33 12 -19 80 -49 98 -42
8 3 14 1 12 -5 -3 -12 30 -31 105 -60 47 -18 60 -20 73 -9 12 10 15 10 15 -2
0 -8 -6 -20 -12 -27 -11 -11 -9 -12 9 -7 16 5 25 2 33 -14 6 -11 17 -20 25
-20 8 0 18 -6 22 -14 8 -13 27 -18 123 -34 l45 -8 -3 31 c-3 26 -8 31 -30 30
-24 0 -27 4 -28 33 -1 27 4 36 29 49 29 14 30 14 24 -6 -3 -12 -2 -21 3 -21 4
0 10 10 13 22 6 20 7 21 24 5 12 -10 23 -13 32 -7 9 5 23 3 36 -6 18 -12 24
-12 41 0 18 14 18 15 1 33 -26 29 -21 34 35 32 32 -2 53 2 56 9 2 7 13 12 25
12 18 0 19 -2 7 -10 -11 -7 -7 -10 18 -10 17 0 32 -4 32 -10 0 -14 36 -13 60
2 18 12 17 13 -10 25 -39 16 -38 30 3 41 17 5 31 14 30 19 -3 14 119 53 145
46 13 -3 28 1 37 11 9 9 25 16 35 16 10 0 22 4 25 10 3 5 17 10 31 10 20 0 25
5 24 23 -4 40 0 49 16 43 8 -3 13 -2 10 3 -5 8 20 23 57 35 11 3 17 16 17 34
0 30 35 72 61 72 8 0 23 7 33 15 17 13 17 15 4 15 -10 0 -18 10 -20 23 -4 28
-48 36 -69 11 -12 -15 -12 -16 8 -10 32 10 36 -8 8 -34 -14 -13 -25 -29 -25
-35 0 -18 -46 -6 -66 16 -16 18 -16 19 4 19 18 0 22 6 22 35 0 28 -4 35 -20
35 -11 0 -20 5 -20 11 0 8 -5 8 -15 -1 -8 -7 -15 -24 -15 -37 0 -22 3 -24 25
-19 27 7 35 -8 10 -18 -8 -3 -15 -12 -15 -19 0 -8 -6 -20 -14 -26 -12 -10 -14
-8 -9 11 4 23 4 23 -12 3 -9 -11 -25 -30 -35 -43 -22 -24 -26 -47 -10 -57 5
-3 9 -17 8 -30 -3 -28 -32 -35 -42 -9 -4 10 -15 14 -33 12 -16 -2 -33 3 -39
12 -9 11 -15 12 -26 2 -14 -11 -28 -7 -28 9 0 5 14 16 30 24 32 17 31 40 -1
32 -10 -3 -20 0 -23 7 -3 7 -5 7 -5 -1 -1 -7 -14 -13 -29 -13 -15 0 -32 -4
-37 -9 -16 -16 -128 -32 -139 -21 -7 7 -3 10 12 10 12 0 22 5 22 11 0 6 7 9
15 5 26 -10 61 14 74 50 7 19 17 34 23 34 5 0 8 7 4 15 -4 12 -2 13 14 2 11
-6 20 -17 20 -23 0 -6 11 -17 26 -24 22 -12 29 -12 52 2 32 20 40 38 17 38 -9
0 -15 6 -12 13 2 7 18 11 38 10 29 -2 38 4 57 33 13 20 30 34 42 34 11 0 20 7
20 15 0 8 -5 15 -11 15 -6 0 3 13 19 30 31 31 52 38 52 19 0 -8 4 -8 13 -2 36
29 47 18 12 -12 -32 -27 -37 -37 -27 -47 10 -10 17 -10 32 0 11 6 32 12 48 12
41 0 58 20 33 40 -26 21 -37 60 -17 60 9 0 16 8 16 18 0 26 -11 34 -27 20 -18
-15 -22 -8 -12 20 7 18 14 22 29 17 11 -3 20 -2 20 3 0 5 14 12 30 16 17 3 30
12 30 20 0 7 10 21 23 29 17 13 19 18 9 25 -10 7 -7 13 12 26 14 9 26 26 26
37 0 12 5 19 13 16 6 -2 23 15 37 37 14 23 55 71 92 108 37 37 77 87 89 112
12 25 25 46 30 46 4 0 22 14 39 30 17 16 37 30 45 30 9 0 15 10 15 25 0 18 10
30 40 47 22 13 40 27 40 31 0 9 118 125 165 162 28 22 73 85 60 85 -3 0 -19
-15 -36 -32 -16 -18 -37 -41 -46 -51 -10 -10 -25 -15 -37 -12 -12 3 -15 2 -8
-1 17 -8 15 -27 -2 -21 -9 4 -17 -1 -21 -12 -3 -9 -24 -31 -46 -47 -23 -16
-48 -37 -57 -46 -9 -10 -22 -18 -28 -18 -7 0 -15 -11 -18 -24 -3 -14 -15 -28
-26 -31 -11 -3 -20 -10 -20 -15 0 -4 -9 -6 -20 -3 -24 6 -70 -21 -70 -42 0 -8
-6 -15 -12 -16 -53 -5 -108 -20 -108 -30 0 -5 9 -9 20 -9 28 0 25 -14 -7 -30
-16 -8 -35 -20 -43 -26 -8 -7 -26 -14 -40 -16 -20 -2 -26 -10 -30 -38 -4 -29
-9 -35 -28 -33 -19 2 -21 -1 -16 -22 4 -18 2 -25 -9 -25 -8 0 -20 -7 -27 -16
-8 -8 -29 -22 -48 -30 l-35 -14 22 -21 c23 -22 19 -48 -4 -29 -10 9 -16 7 -24
-9 -9 -16 -18 -19 -49 -14 -20 3 -38 10 -40 15 -2 4 -11 8 -19 8 -11 0 -14 -7
-9 -25 5 -20 3 -25 -13 -25 -25 0 -46 -27 -46 -59 0 -24 -3 -26 -37 -23 -37 3
-68 -13 -68 -36 0 -16 -33 -8 -54 13 -19 18 -21 18 -24 2 -2 -10 -13 -17 -27
-17 -13 0 -36 -5 -50 -12 -21 -9 -28 -9 -34 1 -12 20 -60 41 -67 30 -3 -5 -14
-7 -24 -4 -12 4 -22 -1 -29 -12 -8 -15 -13 -16 -31 -5 -12 8 -27 9 -36 4 -24
-14 -104 9 -104 30 0 10 -4 18 -10 18 -5 0 -10 -9 -10 -20 0 -24 -16 -26 -36
-5 -9 8 -34 15 -57 16 -41 0 -85 5 -119 12 -20 4 -32 14 -34 28 -1 5 -2 14 -3
19 0 6 -12 16 -26 22 -14 6 -25 19 -25 30 0 10 -5 18 -11 18 -6 0 -25 11 -43
25 -18 14 -40 25 -48 25 -18 0 -43 44 -34 59 4 6 13 11 20 11 6 0 16 15 21 32
10 34 45 52 45 24 0 -11 9 -16 30 -16 34 0 39 15 12 39 -12 10 -22 37 -26 69
-6 48 -5 53 12 50 26 -4 73 29 66 47 -4 9 0 15 10 16 29 3 34 4 42 12 4 4 2 7
-4 7 -7 0 -12 16 -12 40 0 22 -4 40 -10 40 -5 0 -10 -7 -10 -15 0 -8 -4 -15
-10 -15 -5 0 -7 17 -5 38 2 20 4 40 4 45 1 4 8 7 16 7 19 0 19 5 1 33 -25 40
-28 64 -9 83 17 17 18 17 23 -9 4 -23 7 -24 23 -12 12 9 19 28 20 53 l2 40 55
5 c30 2 57 0 58 -4 8 -21 22 -7 22 22 0 29 2 30 35 28 45 -4 103 35 84 57 -6
7 -15 11 -20 8 -5 -3 -14 -2 -21 2 -7 4 -21 9 -33 10 -11 1 -40 6 -65 9 -25 4
-58 8 -75 9 -16 0 -50 15 -74 33 -23 18 -52 35 -62 38 -28 9 -23 34 11 53 18
10 28 23 25 31 -3 8 0 11 9 8 20 -8 41 50 25 70 -7 7 -14 11 -17 8 -8 -7 -52
36 -52 51 0 6 -7 17 -15 24 -13 11 -19 8 -40 -14 -13 -14 -31 -26 -39 -26 -21
0 -66 22 -66 32 0 4 -8 8 -17 9 -12 0 -13 2 -5 6 10 4 10 8 1 19 -11 14 -8 98
4 111 4 3 26 9 49 13 50 10 62 2 80 -46 6 -19 15 -34 18 -34 4 0 14 16 23 36
21 42 59 61 149 70 60 6 66 5 96 -21 l33 -28 27 26 c20 18 46 28 97 37 82 13
120 4 135 -34 9 -25 30 -44 30 -28 0 11 91 102 103 102 5 0 22 -14 37 -30 l29
-31 40 25 c56 36 91 43 106 22 7 -9 23 -15 36 -14 23 3 24 0 24 -49 -1 -59
-26 -97 -57 -87 -13 4 -21 -2 -28 -23 -17 -44 -36 -54 -71 -36 -16 8 -29 19
-29 24 0 24 -29 5 -44 -29 -10 -21 -29 -45 -44 -54 l-27 -17 45 6 c25 3 53 6
63 6 9 1 17 7 17 14 0 7 17 15 38 18 20 3 51 12 67 20 17 7 44 16 60 20 87 18
106 23 119 34 8 7 23 11 33 9 23 -5 97 25 124 51 26 24 106 63 170 83 43 14
49 13 70 -3 13 -10 29 -19 35 -19 7 0 20 -17 29 -37 23 -50 44 -73 66 -73 27
0 31 15 31 92 -1 80 -17 108 -63 108 -15 0 -34 6 -41 13 -12 11 -44 17 -98 18
-14 0 -58 0 -99 0 -41 0 -83 4 -93 10 -10 5 -68 7 -135 4 -65 -3 -154 -5 -198
-4 -44 0 -140 0 -212 -1 -83 0 -133 3 -133 9 0 6 -7 8 -15 5 -8 -4 -15 -2 -15
3 0 5 -16 15 -36 22 -32 11 -41 11 -76 -5 -32 -14 -43 -15 -56 -6 -20 15 -23
15 -91 36 -29 9 -62 16 -72 16 -11 0 -24 10 -29 23 -6 15 -9 17 -9 6 -1 -24
-102 -20 -129 4 -11 10 -26 17 -33 15 -11 -2 -14 11 -13 57 1 40 5 59 13 58 6
-2 11 1 11 7 0 9 46 33 88 45 19 6 22 12 18 31 -7 27 8 32 30 9 22 -21 37 -19
31 5 -4 14 4 25 29 41 19 11 34 27 34 35 0 21 27 17 33 -6 3 -11 14 -20 24
-20 10 0 28 -7 40 -15 18 -13 26 -13 43 -3 23 15 24 21 9 50 -10 18 -9 20 6
14 21 -8 61 16 69 41 4 11 16 18 34 19 16 1 41 4 56 8 22 6 26 10 16 21 -6 8
-12 40 -13 71 -1 39 -7 59 -17 64 -8 4 -25 12 -37 18 -12 6 -23 7 -25 3 -2 -5
-28 3 -58 18 -101 48 -96 41 -136 179 -2 6 -12 12 -22 12 -22 0 -42 50 -42
106 0 66 12 144 21 138 5 -3 9 0 9 5 0 6 -4 11 -10 11 -5 0 -10 5 -10 11 0 5
5 7 10 4 6 -3 10 4 10 18 0 13 3 27 8 31 4 4 8 24 9 44 1 21 6 62 11 92 6 30
8 114 5 186 -4 82 -2 138 5 150 7 14 6 26 -4 44 -23 42 -17 58 24 69 20 6 69
11 108 11 60 0 77 -4 108 -25 l37 -25 -4 29 c-3 17 -11 47 -17 67 -11 33 -14
35 -23 18 -16 -29 -27 -33 -61 -22 -17 5 -56 12 -86 15 -57 6 -96 33 -102 71
-3 15 9 18 102 22 l105 5 -135 13 c-150 15 -175 20 -115 22 22 1 49 5 60 9 19
8 19 8 -2 15 -27 9 -30 37 -8 89 8 20 15 50 15 66 0 16 5 33 10 36 10 6 9 30
-5 120 -8 48 11 108 25 85 8 -12 10 -12 10 3 0 22 -38 56 -63 57 -10 0 -28 -5
-39 -11 -17 -9 -23 -8 -30 5 -11 20 -38 21 -38 2 0 -11 -5 -12 -25 -3 -15 8
-25 20 -25 34 0 12 -9 30 -19 40 -10 10 -26 35 -35 56 -14 34 -18 37 -48 33
-18 -2 -48 -10 -66 -18 -29 -11 -35 -11 -42 2 -5 8 -15 24 -23 35 -14 18 -17
19 -34 4 -22 -20 -43 -14 -43 11 0 31 -11 50 -30 50 -11 0 -22 5 -26 12 -11
17 -33 -18 -27 -42 4 -16 0 -20 -17 -20 -19 0 -21 4 -16 26 7 27 7 27 -38 21
-39 -6 -46 -4 -60 18 -9 13 -16 33 -16 45 0 11 -9 29 -21 41 -19 19 -20 24 -8
72 6 28 22 60 35 72 40 37 18 49 -90 47 -53 -1 -96 2 -96 7 0 11 25 21 51 21
17 0 18 3 7 20 -7 11 -21 23 -31 26 -26 8 -17 39 11 38 20 -1 27 8 23 30 -1 5
6 17 15 27 10 11 18 39 19 68 2 42 8 55 34 79 25 23 33 39 38 83 4 35 13 60
26 71 13 12 18 26 15 43 -4 17 -1 25 8 25 10 0 14 13 14 40 0 24 -5 40 -12 40
-9 0 -9 3 0 12 18 18 15 28 -8 28 -13 0 -20 7 -20 20 0 13 -7 20 -18 20 -19 0
-62 34 -62 50 0 5 -7 15 -15 24 -14 14 -14 17 5 36 23 23 26 43 6 59 -14 12
-27 2 -39 -31 -8 -22 -47 -24 -47 -3 0 9 7 18 15 21 8 4 15 17 15 30 0 14 7
27 15 30 18 7 21 58 3 51 -16 -5 -37 22 -38 49 0 11 -5 25 -11 31 -7 7 -7 22
-2 44 8 31 14 35 59 43 27 5 51 12 54 16 6 9 53 37 138 82 35 18 68 41 73 51
5 9 17 17 26 17 9 0 24 7 33 15 17 15 55 11 45 -5 -3 -4 2 -10 10 -14 8 -3 17
-1 20 4 4 6 26 10 50 10 29 0 47 5 53 15 6 12 27 16 90 16 48 0 87 5 95 12 18
18 67 19 67 1 0 -8 -6 -14 -12 -14 -20 -1 24 -30 44 -30 11 0 18 7 18 20 0 24
23 35 48 24 9 -4 22 -8 27 -9 6 0 16 -4 23 -9 7 -4 19 -3 26 3 17 14 46 4 46
-16 0 -10 6 -13 18 -8 9 4 32 9 50 12 17 3 32 10 32 16 0 6 3 8 6 4 3 -3 27 7
53 23 31 19 54 27 69 23 13 -3 22 -1 22 6 0 15 59 44 100 48 19 2 50 13 68 24
18 10 40 19 49 19 9 0 25 7 35 17 10 9 18 12 18 6 0 -5 -9 -18 -20 -28 -26
-23 -25 -33 3 -37 l22 -3 -21 -21 c-12 -12 -26 -23 -31 -25 -6 -2 -13 -14 -17
-25 -11 -37 19 -39 125 -8 9 2 19 -2 23 -11 4 -10 2 -14 -5 -9 -7 4 -10 1 -7
-7 2 -7 15 -16 29 -19 17 -4 25 -14 27 -33 3 -20 9 -27 26 -27 12 0 27 -5 32
-10 6 -6 41 -11 78 -12 52 -1 69 -5 76 -18 6 -11 27 -20 61 -24 28 -4 58 -11
67 -16 10 -6 29 -14 45 -20 15 -5 27 -16 27 -24 0 -7 8 -16 18 -20 37 -13 126
-67 135 -81 4 -8 26 -24 47 -35 21 -11 45 -28 52 -38 7 -10 29 -28 48 -39 19
-12 53 -43 75 -69 22 -26 52 -60 67 -75 15 -16 30 -46 34 -66 4 -21 13 -47 20
-58 12 -20 24 -77 28 -139 2 -17 13 -79 25 -138 12 -59 20 -112 17 -116 -3 -5
1 -18 9 -28 8 -10 15 -31 15 -46 0 -15 4 -38 10 -52 5 -14 6 -27 2 -30 -11 -7
-7 -96 5 -104 10 -7 38 -54 49 -84 3 -10 10 -18 15 -18 5 0 9 -9 9 -19 0 -11
5 -23 10 -26 13 -8 40 -72 40 -96 0 -11 5 -19 11 -19 5 0 7 -4 4 -10 -3 -5 0
-22 8 -37 8 -15 12 -33 10 -39 -2 -6 3 -17 12 -24 10 -8 15 -31 15 -70 0 -42
4 -59 15 -64 17 -6 21 -46 5 -46 -13 0 -13 -53 0 -66 7 -7 5 -21 -6 -43 -18
-36 -13 -76 11 -85 9 -3 13 -2 10 3 -3 5 0 13 6 16 19 12 22 -4 5 -29 -20 -32
-21 -31 9 -50 24 -16 26 -16 35 9 22 57 22 73 3 78 -12 3 -13 5 -3 6 22 2 71
233 76 361 1 30 4 62 7 70 10 33 27 163 27 208 0 26 5 63 11 82 6 19 12 62 14
95 1 33 8 114 15 180 11 106 13 244 6 356 -2 20 -12 56 -24 80 -19 41 -20 53
-12 189 5 80 14 174 19 210 12 73 5 157 -15 180 -20 24 -18 99 4 158 21 53 21
54 1 85 -23 39 -24 57 -2 95 27 47 9 73 -63 94 -33 10 -69 15 -80 12 -38 -10
-40 2 -43 238 -1 56 -4 66 -17 61 -12 -4 -14 0 -9 18 3 15 -2 40 -15 64 -11
21 -20 51 -20 65 0 15 -13 41 -30 60 -16 18 -30 43 -30 54 0 26 -83 104 -137
128 -24 11 -58 19 -76 18 -65 -4 -77 0 -87 24 -18 48 -115 146 -144 146 -7 0
-19 7 -26 15 -8 9 -21 13 -36 9 -25 -6 -58 21 -99 82 -11 16 -40 47 -64 69
-23 22 -63 59 -88 83 -60 57 -156 104 -208 101 -22 -1 -48 1 -59 6 -11 5 -26
4 -37 -3 -26 -17 -46 -15 -53 4 -4 10 -12 14 -22 10 -14 -5 -71 17 -84 33 -3
3 -20 14 -38 24 -26 15 -44 17 -83 12 -27 -4 -51 -11 -55 -16 -7 -13 -51 -11
-60 2 -8 14 -65 38 -132 55 -61 16 -57 16 -64 9z m-724 -3852 c56 -57 89 -104
107 -153 30 -79 43 -144 35 -174 -5 -22 -12 -26 -44 -26 -35 0 -41 5 -90 71
-33 44 -52 80 -52 98 0 15 -7 36 -15 47 -16 22 -20 74 -5 74 6 0 10 9 10 21 0
24 17 59 29 59 4 0 15 -8 25 -17z m-1628 -155 c-39 -223 -31 -399 31 -648 80
-322 188 -488 376 -576 64 -29 35 -32 -52 -4 -67 21 -136 64 -172 108 -65 77
-175 354 -216 544 -26 119 -25 467 1 551 19 61 42 79 32 25z m764 -625 c0 -14
4 -21 10 -18 6 3 10 15 10 26 0 12 7 19 20 19 13 0 20 -7 20 -19 0 -11 5 -23
10 -26 6 -3 10 1 10 9 0 10 9 16 24 16 29 0 42 -16 37 -47 -3 -28 -3 -28 49
-1 l41 22 25 -32 c15 -18 35 -32 47 -32 38 -1 57 -24 57 -67 0 -30 6 -45 25
-61 15 -14 25 -17 26 -9 0 6 4 2 10 -11 6 -17 5 -27 -6 -38 -20 -20 -19 -30 5
-54 13 -13 18 -26 13 -33 -4 -7 -8 -21 -8 -32 0 -14 -9 -21 -33 -26 -45 -9
-49 -16 -18 -30 35 -16 33 -24 -11 -35 -28 -7 -37 -14 -35 -27 2 -10 -3 -16
-10 -15 -7 2 -17 -7 -23 -20 -5 -12 -18 -25 -29 -28 -13 -5 -15 -8 -6 -14 24
-15 -8 -20 -36 -5 -15 7 -32 11 -38 7 -23 -14 -81 -7 -97 13 -14 17 -19 17
-33 6 -14 -12 -19 -11 -34 3 -10 9 -22 13 -25 9 -13 -12 -48 29 -41 49 4 14 0
21 -15 25 -14 3 -21 13 -21 29 0 18 -6 24 -21 24 -25 0 -58 37 -59 65 0 16 -2
17 -9 6 -13 -21 -41 4 -41 35 0 13 -5 24 -11 24 -18 0 -37 31 -32 51 3 10 12
15 21 12 22 -5 57 21 48 35 -4 7 -18 12 -32 12 -20 0 -24 5 -24 30 0 17 -4 30
-10 30 -22 0 -8 19 16 22 52 6 58 74 7 72 -15 0 -18 5 -15 26 4 26 8 28 80 36
46 5 94 5 120 0 35 -8 42 -13 42 -33z m-2240 -208 c0 -22 4 -25 40 -25 36 0
40 3 40 25 0 24 3 25 55 25 l55 0 0 -40 c0 -37 -2 -40 -27 -40 -14 0 -34 -7
-44 -15 -22 -21 -119 -10 -119 12 0 8 -13 26 -30 40 -16 13 -30 29 -30 34 0 5
14 9 30 9 25 0 30 -4 30 -25z m259 -96 c-6 -11 -5 -20 1 -24 5 -3 10 -26 10
-51 0 -32 -4 -44 -15 -44 -9 0 -15 9 -15 25 0 36 -17 31 -34 -10 -8 -19 -22
-35 -30 -35 -9 0 -16 -9 -16 -20 0 -28 -19 -25 -30 4 -5 13 -15 26 -22 29 -7
3 2 6 20 6 17 1 32 3 32 5 0 2 -16 20 -37 41 -25 25 -38 32 -44 24 -8 -13 -39
-5 -39 10 0 14 21 25 51 27 14 1 35 5 47 8 19 6 22 4 22 -19 0 -21 4 -26 16
-21 9 3 20 6 26 6 6 0 7 7 4 16 -4 9 0 27 9 40 13 20 18 22 35 12 14 -9 16
-16 9 -29z m-739 -229 c0 -17 -7 -20 -49 -20 -40 0 -50 -3 -54 -20 -6 -23 17
-40 44 -33 15 4 18 0 16 -26 -2 -31 -17 -44 -17 -15 0 11 -5 14 -17 9 -40 -16
-49 -15 -68 15 -11 16 -27 30 -37 30 -9 0 -18 4 -20 9 -1 5 -18 7 -36 3 -31
-7 -32 -8 -18 -27 9 -11 16 -14 16 -7 0 21 20 13 20 -8 0 -17 -7 -20 -50 -20
-27 0 -50 -4 -50 -10 0 -5 -8 -10 -17 -10 -16 1 -16 2 -2 13 8 7 24 24 33 40
18 26 18 27 -2 27 -12 0 -23 -9 -27 -20 -10 -32 -35 -25 -35 10 0 18 -6 33
-15 36 -8 4 -15 12 -15 20 0 10 15 14 56 14 46 0 59 -4 75 -22 11 -14 22 -19
26 -13 9 12 73 18 73 7 0 -5 -5 -13 -12 -20 -9 -9 -9 -12 3 -12 18 0 48 30 46
45 -2 11 41 22 96 24 31 1 37 -2 37 -19z m2492 -852 c-3 -56 0 -91 12 -130 22
-67 59 -160 86 -217 12 -24 27 -73 34 -108 6 -35 15 -61 20 -56 5 4 6 -1 2
-12 -3 -12 -7 -46 -9 -76 -2 -54 -3 -56 -37 -67 -28 -8 -38 -8 -51 4 -8 8 -21
14 -28 14 -7 0 -9 5 -6 11 4 5 -4 27 -17 47 -14 20 -35 67 -48 105 -13 37 -27
67 -32 67 -14 0 -35 55 -41 109 -4 35 -12 58 -22 64 -18 10 -19 82 -2 104 5 7
6 31 2 53 -4 26 -3 46 5 55 6 8 9 19 5 24 -9 15 12 49 35 56 11 3 20 13 20 21
0 8 10 14 26 14 18 0 28 6 32 23 6 22 6 22 12 -3 4 -14 5 -60 2 -102z"/>
<path d="M6383 10543 c-13 -3 -23 -9 -23 -14 0 -5 -29 -7 -68 -3 -55 4 -71 2
-81 -10 -8 -9 -19 -16 -27 -16 -7 0 -29 -11 -49 -24 -20 -14 -39 -26 -43 -28
-13 -6 -42 -66 -42 -87 0 -11 -9 -25 -20 -31 -14 -8 -19 -17 -15 -30 3 -11 1
-36 -5 -57 -9 -29 -21 -43 -50 -57 -21 -10 -43 -29 -49 -42 -10 -22 -6 -26 39
-56 27 -18 46 -35 41 -38 -4 -3 -10 -12 -13 -21 -6 -14 9 -24 65 -43 9 -3 17
-11 17 -17 0 -8 -17 -10 -61 -5 -42 5 -59 4 -54 -3 3 -6 13 -11 21 -11 9 0 15
-12 16 -37 3 -66 7 -115 16 -213 9 -97 6 -130 -9 -130 -5 0 -15 21 -22 48 -17
56 -44 66 -39 14 2 -18 -2 -40 -9 -48 -11 -14 -15 -13 -31 8 -23 30 -23 15 3
-93 16 -69 26 -91 45 -104 13 -8 24 -23 24 -33 1 -25 37 24 44 60 12 61 33 29
65 -99 18 -71 39 -142 47 -160 19 -41 18 -46 -7 -40 -26 7 -21 -7 21 -66 189
-258 207 -288 191 -329 -19 -51 -116 -38 -213 29 -47 32 -84 27 -153 -22 -38
-28 -56 -34 -77 -30 -17 4 -28 2 -28 -4 0 -6 5 -11 10 -11 6 0 10 -7 10 -15 0
-12 53 -34 85 -35 6 0 20 -11 33 -25 13 -13 30 -21 38 -18 10 4 14 -2 14 -21
0 -19 5 -26 19 -26 11 0 21 5 23 11 8 24 133 38 168 19 24 -13 70 -13 70 -1 0
5 -10 11 -22 13 -35 5 -32 24 11 65 22 21 46 53 52 71 12 35 32 41 55 17 9 -8
24 -15 35 -15 10 0 19 -5 19 -11 0 -5 4 -8 9 -5 5 3 14 -8 20 -24 6 -19 17
-30 29 -30 16 0 22 -10 29 -47 7 -38 13 -48 27 -46 10 0 31 -11 47 -26 22 -21
26 -30 17 -39 -9 -9 -7 -12 9 -12 29 0 36 -26 12 -44 -23 -16 -58 -10 -66 10
-8 21 -23 17 -23 -6 0 -16 7 -20 33 -21 160 -7 180 -12 201 -55 9 -19 16 -41
16 -48 0 -12 15 -21 73 -45 15 -6 30 -19 33 -28 3 -10 10 -25 15 -33 21 -34
30 -65 20 -68 -5 -2 -2 -11 8 -21 11 -11 21 -42 26 -76 10 -84 17 -96 61 -111
51 -18 51 -18 60 8 3 12 20 34 38 50 l31 28 1 115 c1 63 -2 115 -7 115 -14 0
-11 28 4 33 9 4 9 7 0 14 -7 5 -19 25 -28 46 -8 20 -29 47 -46 59 -17 13 -37
37 -46 55 -14 30 -14 34 8 65 13 18 27 35 32 37 5 2 18 12 28 22 27 27 75 49
107 49 45 0 142 37 198 75 55 38 69 53 131 135 112 150 230 440 265 651 6 41
16 80 22 88 8 10 34 12 106 10 l95 -4 3 38 c2 21 -1 37 -7 37 -6 0 -11 -9 -11
-20 0 -27 -26 -36 -48 -17 -22 19 -82 32 -82 18 0 -6 -10 -11 -22 -11 -22 0
-23 5 -25 70 -2 93 -36 227 -82 325 -41 85 -57 106 -118 152 -21 15 -41 32
-45 38 -4 5 -10 7 -13 3 -4 -3 -20 -2 -36 2 -45 13 -35 -6 24 -44 46 -29 127
-106 119 -114 -1 -1 8 -23 22 -50 50 -100 76 -190 76 -267 0 -74 -5 -82 -37
-62 -9 6 -13 2 -13 -12 0 -13 -6 -21 -17 -21 -15 0 -16 2 -3 10 13 8 12 10 -3
10 -10 0 -15 5 -12 10 3 6 -3 10 -15 10 -11 0 -28 4 -38 9 -17 10 -102 31
-121 31 -12 0 -15 -50 -3 -50 21 -1 192 -40 219 -50 32 -12 32 -12 28 -68 -6
-63 -40 -217 -55 -244 -6 -10 -10 -24 -10 -33 0 -23 -52 -170 -62 -173 -4 -2
-6 -7 -3 -12 11 -17 -82 -179 -146 -254 -51 -60 -112 -115 -140 -126 -16 -7
-29 -16 -29 -20 0 -7 -38 -19 -139 -41 -109 -24 -414 5 -593 57 -323 93 -402
185 -519 609 -43 155 -74 442 -60 555 l7 55 8 -70 c4 -38 10 -82 12 -97 5 -26
50 -68 73 -68 6 0 11 -9 11 -20 0 -13 9 -22 28 -26 15 -4 36 -12 47 -18 11 -7
40 -18 65 -26 25 -7 50 -18 57 -23 7 -5 17 -6 22 -2 6 3 30 -3 55 -14 54 -25
176 -28 176 -5 0 8 -4 14 -10 14 -5 0 -10 4 -10 9 0 5 26 13 58 18 57 10 57
10 27 22 -16 6 -36 14 -43 16 -7 3 -11 9 -7 15 4 6 15 6 32 -1 40 -15 82 -3
76 22 -3 10 -10 19 -15 19 -5 0 -6 5 -3 10 3 6 19 10 35 10 15 0 30 7 34 15 3
9 18 15 35 15 16 0 33 5 37 11 3 6 19 9 34 6 15 -3 36 0 46 7 11 7 36 10 59 8
22 -3 74 -4 115 -3 89 2 110 18 110 80 0 29 -7 48 -25 67 -14 15 -25 30 -25
34 0 5 -16 17 -35 29 -19 11 -35 27 -35 35 0 8 -9 18 -20 21 -11 3 -20 11 -20
16 0 5 -6 9 -12 8 -7 -1 -22 1 -33 5 -11 5 -26 10 -33 12 -8 2 -16 13 -19 24
-3 11 -14 20 -25 20 -10 0 -16 5 -13 10 4 6 -6 10 -22 11 -15 0 -22 3 -15 6 6
2 12 11 12 18 0 7 -6 16 -12 18 -7 3 -3 6 9 6 28 1 100 29 133 52 34 23 94 39
111 28 8 -4 19 -3 26 3 9 7 17 7 28 -2 8 -6 53 -13 102 -15 48 -2 100 -8 115
-14 17 -6 29 -7 33 -1 4 6 -1 10 -10 10 -23 0 -168 49 -180 61 -7 7 9 9 48 6
65 -5 77 8 17 18 -44 7 -53 21 -17 28 19 4 19 4 -5 6 -20 1 -25 5 -22 19 4 12
-4 21 -26 31 -17 7 -34 10 -37 7 -3 -3 -13 0 -21 7 -9 7 -43 12 -78 12 -39 0
-65 4 -68 12 -3 6 -35 14 -73 18 -37 4 -76 12 -86 17 -12 6 -23 6 -31 -1 -7
-6 -15 -8 -18 -5 -7 6 -92 13 -208 17 -42 2 -81 6 -87 10 -14 9 -128 16 -160
10z"/>
<path d="M2160 10245 c0 -18 -41 -20 -59 -2 -11 10 -14 10 -18 0 -3 -7 -16
-13 -29 -13 -17 0 -24 -6 -24 -20 0 -11 -10 -30 -21 -41 -17 -17 -29 -20 -60
-16 -39 5 -56 -4 -43 -24 5 -8 9 -8 14 1 5 7 20 9 44 5 31 -6 36 -11 36 -36 0
-19 5 -29 15 -29 11 0 15 11 15 40 0 22 5 40 10 40 6 0 10 8 10 18 0 21 27 62
41 62 5 0 9 -18 9 -40 0 -38 2 -40 30 -40 17 0 30 -4 30 -10 0 -5 18 -10 40
-10 33 0 40 -3 40 -20 0 -17 -7 -20 -40 -20 -22 0 -40 -4 -40 -9 0 -6 -17 -11
-37 -13 -27 -2 -39 -8 -41 -20 -3 -13 3 -18 21 -18 46 0 87 12 87 26 0 19 126
20 133 2 4 -10 6 -10 6 0 1 19 24 14 49 -13 33 -35 26 -65 -20 -81 -36 -12
-38 -12 -38 7 0 18 -1 19 -25 3 -15 -10 -38 -15 -59 -12 -25 3 -37 -1 -45 -14
-13 -21 -31 -24 -31 -5 0 7 -15 17 -32 23 -18 5 -32 15 -30 22 1 6 -2 12 -8
12 -5 0 -10 -13 -10 -30 0 -22 5 -30 18 -30 20 0 64 -29 45 -30 -24 0 -13 -25
12 -26 15 -1 25 3 25 12 0 8 5 14 12 14 6 0 20 7 30 17 16 15 18 15 18 0 0
-15 3 -14 30 1 28 16 32 16 61 0 54 -31 93 -16 89 34 -1 13 -2 29 -1 36 1 15
61 16 61 0 0 -6 2 -9 5 -6 4 3 3 17 -1 32 -5 21 -12 26 -35 26 -16 0 -29 5
-29 10 0 6 7 10 15 10 22 0 18 16 -10 38 -14 11 -25 25 -25 31 0 6 -15 11 -32
11 l-33 1 25 14 c32 18 40 18 40 0 0 -12 13 -15 55 -15 l55 0 0 40 c0 43 -23
57 -35 21 -3 -11 -13 -25 -22 -32 -13 -11 -18 -10 -33 8 -10 12 -20 20 -23 17
-3 -3 -19 2 -36 10 -16 9 -32 16 -36 16 -3 0 -5 -19 -5 -41 l0 -42 -25 27
c-28 30 -55 34 -55 7 0 -11 -9 -21 -22 -25 -44 -11 -58 -7 -58 17 0 18 10 28
40 42 22 10 40 24 40 32 0 9 -13 13 -40 13 -29 0 -40 -4 -40 -15z"/>
<path d="M960 9820 c0 -5 -18 -10 -40 -10 -28 0 -40 -4 -40 -14 0 -8 -3 -23
-6 -33 -4 -11 -3 -14 3 -7 9 12 100 25 121 17 6 -3 12 -16 12 -29 0 -21 -3
-24 -25 -18 -21 5 -25 3 -25 -15 0 -22 24 -29 36 -10 3 6 15 9 25 6 15 -4 19
0 19 19 0 21 4 24 40 24 l40 0 0 -42 c1 -33 3 -39 10 -26 6 9 9 31 8 49 -3 28
1 34 26 43 22 8 30 8 33 -1 5 -13 55 -18 66 -6 9 8 -24 32 -45 33 -10 0 -18 7
-18 16 0 14 -2 14 -22 0 -12 -9 -30 -16 -40 -16 -10 0 -18 -4 -18 -10 0 -5
-22 -10 -50 -10 -38 0 -50 4 -50 15 0 8 5 15 10 15 6 0 10 5 10 10 0 6 -18 10
-40 10 -22 0 -40 -4 -40 -10z"/>
<path d="M1293 9583 c-8 -3 -13 -23 -13 -49 0 -40 -2 -43 -19 -33 -15 10 -22
8 -40 -10 -11 -11 -21 -25 -21 -30 0 -4 -37 -13 -82 -18 l-83 -10 93 -2 c75
-1 94 2 99 15 4 11 13 13 36 8 53 -11 67 -25 67 -66 0 -27 4 -38 15 -38 8 0
15 -9 15 -19 0 -13 8 -21 22 -23 26 -3 38 -38 14 -38 -26 0 -18 -27 9 -34 21
-5 24 -10 18 -36 -5 -26 -3 -30 18 -30 18 0 20 -3 11 -12 -7 -7 -12 -20 -12
-29 0 -13 8 -17 40 -16 46 2 51 17 17 44 -21 16 -47 53 -47 67 0 14 35 36 50
31 13 -4 21 1 26 17 10 30 11 78 2 78 -5 0 -8 -7 -8 -15 0 -11 -12 -15 -45
-15 -31 0 -47 5 -51 15 -4 8 -12 15 -20 15 -10 0 -14 12 -14 38 0 30 5 39 25
49 14 6 25 7 25 2 0 -14 22 -11 40 6 10 9 30 18 45 21 16 3 36 9 46 14 24 14
29 13 29 -6 0 -10 7 -14 23 -12 28 4 29 32 0 36 -12 2 -21 9 -19 15 1 7 1 9
-1 5 -7 -11 -41 -10 -64 2 -15 8 -19 7 -19 -4 0 -18 -79 -37 -97 -23 -9 6 -16
2 -22 -16 -8 -20 -16 -25 -38 -24 -23 2 -28 7 -28 30 1 19 -4 27 -17 27 -21 0
-22 1 -6 35 12 27 3 46 -19 38z"/>
<path d="M400 9390 l0 -40 -40 0 c-22 0 -40 -4 -40 -10 0 -5 -18 -10 -40 -10
-33 0 -40 -3 -40 -20 0 -17 7 -20 40 -20 33 0 40 -3 40 -20 0 -17 7 -20 40
-20 33 0 40 3 40 20 0 17 -7 20 -40 20 -33 0 -40 3 -40 20 0 17 7 20 40 20 29
0 40 -4 40 -15 0 -8 7 -15 15 -15 8 0 15 -7 15 -15 0 -9 9 -15 25 -15 20 0 25
-5 25 -25 0 -16 6 -25 16 -25 11 0 14 6 8 22 -9 28 -24 43 -53 53 -30 9 -24
41 7 37 12 -2 22 2 22 7 0 6 -11 11 -25 11 -22 0 -25 4 -25 40 0 29 -4 40 -15
40 -11 0 -15 -11 -15 -40z"/>
<path d="M869 9411 c-23 -18 -23 -20 -6 -38 9 -11 17 -25 17 -31 0 -6 19 -13
43 -15 l42 -4 -42 -1 c-36 -2 -43 -5 -43 -22 0 -17 7 -20 43 -20 28 0 37 -3
28 -9 -8 -5 -11 -16 -8 -24 7 -17 51 -12 68 9 15 18 29 18 29 0 0 -7 12 -16
27 -19 33 -6 43 -1 43 19 0 11 -9 14 -32 12 -32 -3 -33 -2 -36 40 -3 39 -1 42
22 42 15 0 26 6 26 14 0 9 -8 12 -25 8 -14 -2 -25 -8 -25 -13 0 -5 -11 -9 -25
-9 -22 0 -25 4 -25 40 l0 40 -49 0 c-33 0 -56 -6 -72 -19z"/>
<path d="M800 9397 c0 -25 -3 -27 -42 -29 -24 0 -50 -1 -58 0 -27 3 -60 -21
-60 -42 -1 -21 -1 -21 -19 2 -11 12 -22 22 -26 22 -12 0 -85 -61 -85 -71 0 -5
7 -9 15 -9 8 0 15 -7 15 -15 0 -18 14 -19 42 -4 15 8 17 13 8 19 -7 4 -9 13
-6 19 10 16 36 14 42 -4 4 -8 16 -15 28 -15 34 0 49 -20 30 -41 -19 -21 -11
-39 17 -39 14 0 19 -7 19 -25 0 -30 11 -32 33 -7 21 23 21 32 3 32 -8 0 -17
11 -20 24 -3 13 -9 31 -12 40 -4 11 0 16 13 16 14 0 24 -12 33 -40 10 -32 18
-40 37 -40 30 0 31 28 1 32 -23 3 -40 48 -19 48 6 0 11 19 11 42 0 25 7 49 17
60 16 17 16 20 0 35 -16 16 -17 16 -17 -10z"/>
<path d="M6500 8980 c0 -28 -3 -30 -35 -30 -19 0 -35 5 -35 10 0 6 -4 10 -10
10 -13 0 -13 -33 1 -47 7 -7 5 -15 -7 -28 -17 -17 -17 -18 2 -32 10 -8 56 -34
100 -58 93 -51 190 -75 297 -75 69 1 71 1 42 15 -16 7 -24 14 -17 14 20 2 14
21 -7 21 -11 0 -23 -4 -26 -10 -3 -5 -1 -10 6 -10 7 0 9 -3 6 -6 -8 -8 -37 14
-37 27 0 5 9 9 20 9 13 0 18 5 14 15 -5 11 -10 12 -25 2 -17 -10 -24 -7 -52
26 -18 20 -37 37 -43 37 -5 0 -15 9 -22 20 -7 11 -21 20 -31 20 -11 0 -32 14
-48 30 -15 17 -34 30 -40 30 -7 0 -18 9 -25 20 -18 28 -28 25 -28 -10z"/>
</g>
</svg>
